<svg id="Layer_1" enable-background="new 0 0 500 500" viewBox="0 0 500 500" xmlns="http://www.w3.org/2000/svg"><path clip-rule="evenodd" d="m246.214 215.277c3.419-4.005 2.19-3.286 3.573-5.831 1.569-3.585 4.382-11.478 4.788-16.262h.118c.415-10.086 14.019-10.158 14.523 0h.118c1.048 9.091 6.452 18.829 14.304 23.911 2.524 1.635 2.379 1.616 5.745 2.675 6.748 2.067 6.986 11.166.759 13.748-12.312 4.349-20.256 15.988-21.899 28.619-1.825 7.854-11.781 6.335-12.603-.161-.994-9.395-4.885-18.483-10.95-25.676-1.012-1.384-3.356-1.628-3.332-2.514-2.315-2.588-7.105-2.816-7.505-7.007 1.093.722 1.217 1.28 3.038 2.14-.368-.612-.888-.52.727-.695-.011-.374-.588-.535-.626-.802 10.168.388 19.809 6.578 24.393 15.62 2.831-5.795 7.134-11.641 12.196-15.834-5.011-3.533-8.854-7.609-11.993-12.892-4.369 7.102-12 12.237-20.316 13.052-3.244.138-1.345-.95-3.975-1.07-.945-.043-1.31.081-2.139.481 1.109-1.708.149-1.352 1.305-2.086 2.106-1.337 1.234-1.48 2.193-1.979 1.767-.919 1.759-2.223 2.279-2.514 2.475-1.39 3.516-2.871 5.279-4.923zm-133.993-71.734c-3.123-.242-8.571.535-11.731.695-1.536.463-5.415 1.207-7.034 1.498-1.818.597-6.853 1.351-8.816 1.605-3.592 1.441-11.889 1.363-15.138-3.423.337-.897-.072-.867.235-1.07.389-.256-.077-.713.38-1.07 1.068-.835.083-1.666 1.802-2.086.672-.164 1.044-1.075 2.006-1.444 2.137-.82 1.568-1.203 2.156-1.444.239-.076.446-.206.583-.482.471 0 .738-.535 1.075-.909l1.043-.428c7.639-4.089 21.027-4.596 29.512-5.082 8.772 1.653 19.872 3.118 26.864 8.773.471.559 1.888.016 1.803.803.883 1.517 2.213.304 2.204 2.888l-.915.268c.005.053 0 .107.005.107.129.259-.311.478-.428.802-.106.294.78.883-1.524 1.123-2.425.252-6.408 1.354-8.548 1.07-4.467-1.047-10.839-1.776-15.534-2.194zm45.105-73.498c.258-7.172 1.762-17.238 7.172-23.056 2.631-1.908 4.256-3.662 8.538-2.995.508.847.656.66.594.909-.105.421.6.539.508 1.016-.23 1.19 1.151 1.213.278 2.621-.382.617.145 1.387-.193 2.246-.609 1.552-.069 2.016-.171 2.354-.195.643.095.642.01.642.363 4.255-1.835 10.511-2.257 14.871-.392 3.433-.601 9.046-.224 12.464-.449 4.158-.083 10.98.856 14.924 0 0 1.006 4.333 1.006 4.333.367.461-.27.642-.235.909.11.755.649 3.089.465 3.958-.154.727 1.268 1.256.626 1.712-.51.362.234 1.206.331 1.819-.654 2.529-.904.845-2.568 1.604-.312.142-.042 1.165-1.861-.214-4.277-2.678-7.617-6.206-8.596-11.18-3.181-8.842-4.31-19.535-4.279-28.937zm-51.962 14.389c-.215-.323.08-1.583.203-1.712.301-.314.942.214.942-.107 1.471-.66-.218-1.675 2.46-1.07 4.132.572 9.151 2.176 11.881 5.563 5.897 4.546 10.897 9.802 16.171 13.855 4.367 3.475 10.316 8.712 13.678 13.213 3.894 3.489 6.145 10.153 3.065 14.871-1.03.206-.848.386-1.07.214-.25-.193-.791.35-1.118.107-.671-.497-1.569.158-1.792-.107-1.103-.678-3.584-2.538-4.188-2.675-4.913-1.489-9.111-6.996-12.94-10.484-8.112-6.952-15.543-16.297-22.713-24.393-.583-.281-.085-.738-.236-.963-.661-.986-1.862-2.275-2.135-3.424-.157-.664-1.586-.624-1.22-1.284.325-.582-.672-1.039-.988-1.604zm147.756 38.141c-.043-.107-.011-.214 0-.374 1.135.729 1.013 1.249 3.167 2.247-.858-.781-.223-.427.717-.695-.027-.374-.626-.535-.685-.856 10.567 1.002 19.772 8.141 24.328 17.652 3.012-6.905 7.359-12.951 12.833-18.027-5.101-3.697-9.656-9.222-12.63-14.71-3.856 7.04-11.763 13.334-19.995 14.657-3.435.361-1.491-.679-4.231-.803-.947-.043-1.388.071-2.204.535 1.208-1.878.257-1.421 1.434-2.247.315-.221 1.308-.754 1.396-1.123.282-1.184 1.669-.746 2.632-3.049.378-.904 2.207-1.474 3.841-3.638 3.593-4.565 5.551-7.884 6.355-12.036 1.482-3.58 3.714-11.816 3.761-15.513h.177c.408-10.275 14.315-9.762 14.422 0h.177c.958 11.225 7.113 23.375 16.935 29.314 0 0 3.317 1.337 3.317 1.337 5.825 1.856 7.475 10.83 0 13.961-12.905 5.453-19.724 19.136-21.333 32.202-1.241 7.483-11.77 6.936-12.63-.16-1.036-10.306-4.57-20.422-10.773-28.672-.801-1.414-3.467-2.062-3.413-2.942.098-1.62-5.97-2.176-7.598-7.06zm-135.255 110.033c-2.754-2.07-6.57-2.352-7.205-6.526 1.089.719 1.195 1.265 3.033 2.14-.33-.598-.931-.516.733-.695-.016-.374-.594-.535-.631-.802 10.18.369 19.73 6.582 24.398 15.566 3.749-6.736 6.163-10.622 12.202-15.78-4.95-3.49-8.902-7.672-12.004-12.892-4.433 7.167-11.966 12.217-20.316 13.052-3.245.138-1.338-.95-3.975-1.07-.942-.043-1.277.073-2.134.481 1.113-1.711.16-1.362 1.305-2.086 2.106-1.332 1.223-1.476 2.199-1.979 1.709-.881 1.764-2.232 2.273-2.514 4.2-2.765 7.023-6.431 8.853-10.752 1.547-3.537 4.391-11.491 4.782-16.261h.118c.449-10.096 14.011-10.151 14.529 0h.123c1.048 9.158 6.434 18.779 14.293 23.911 2.343 1.527 2.422 1.667 5.751 2.675 6.703 2.029 7.025 11.139.754 13.748-12.078 4.154-20.397 16.205-21.889 28.619-1.387 7.301-11.546 6.893-12.614-.161-.583-3.852-.918-6.753-2.327-10.592l-2.61-5.617c-1.23-1.968.376-.261-1.557-3.638l-4.445-5.831c-1.565-1.632-3.222-1.575-3.639-2.996zm48.121-78.313c.022 0 .038 0 .053.053zm18.771-7.863h.011c-.011 0-.011 0-.011 0zm53.065 11.982c-.021 0-.037 0-.043 0zm-84.609 1.231c.775 6.132 16.14 14.266 20.156 17.974-.799 2.516-5.992 18.327-6.285 20.915-1.135 10.008 10.667 15.982 17.818 10.056 4.461-3.238 11.953-9.003 16.294-12.25 4.354 3.279 8.652 5.975 13.143 9.094 5.558 5.354 14.72 6.828 18.685-1.659 2.84-6.554-4.955-20.164-6.398-26.959 1.375-1.846 14.714-10.733 18.107-14.069 5.179-6.186.964-15.373-7.125-15.191-5.147.116-10.347.162-15.443.749-8.148.924-7.168 1.474-9.645-3.584 0 0-4.766-9.682-4.766-9.682-3.685-7.603-2.498-3.678-2.771-3.263-.952-.288-.963-.805-.963.214-.31-.65-1-2.244-1.503-2.621-.592 2.366.339 6.502 1.375 8.719.121.262 1.135 3.636.888 4.172-.395.857 1.775 4.88 2.434 7.703 1.716 9.165 14.661 7.351 20.809 8.023 1.33.626 2.696.322 3.985.322-17.371 11.983-21.163 12.155-13.491 33.647-14.954-12.613-19.639-12.628-34.492 0 7.113-19.751 5.518-21.427-11.426-32.844 5.673-.544 12.721.169 17.915-2.407 6.694-3.745 8.066-19.853 10.383-26.907-.003-.003-.86-.691-.022-1.016.703-.272.904-.843 1.311-.535.654.495.651-.39 1.562.749.474-3.322-.277-2.229-.92-4.173-.191-.578-5.63-3.24-8.768 2.996-2.966 5.52-6.31 11.944-9.019 17.973-4.581-.226-13.831-.477-18.385-.428-8.094-1.635-15.861 6.154-13.443 14.282zm264.23 50.55c1.82-32.336-17.119-64.302-46.405-77.938-19.549 50.25-40.211 102.745-65.833 149.565 3.233 1.561 4.238 5.46 3.723 8.88 51.169 10.398 106.818-26.533 108.515-80.507zm-124.642 94.895c-3.744 16.147-10.54 32.362-22.493 44.345-6.209 6.956-14.044 11.064-20.37 17.866-23.19-1.9-50.002.325-73.242.481-8.8-8.359-12.88-8.734-20.686-16.529-14.782-14.662-24.712-35.284-26.147-56.274 53.944 1.391 110.435.778 164.334.588-.373 3.744-.923 6.058-1.396 9.523zm-99.469 115.009c14.754.001 29.961-1.863 44.292-5.028-1.919 1.968-.82 1.349-1.268 3.905-.089.508-.647.218-.562.749.363 2.268.417 1.544-.337 3.851-.188.576-.791 3.198-1.193 3.263-.683.111-.485.795-.588 1.123-1.405 2.975-1.285 3.114-3.001 5.51-4.331 6.382-13.79 9.42-21.231 8.666-.797.008-6.318-1.967-7.2-2.247-5.738-2.965-8.362-8.247-11.517-13.266-1.178-1.224-1.647-4.069-2.134-6.366zm235.944-231.301c-5.031-32.511-29.196-61.09-59.778-72.963-3.675-1.444-7.805.374-9.233 4.065l-21.964 56.916c-13.366 34.194-25.258 69.304-36.295 104.203-42.232-.011-85.802.957-128.082 1.604 0 0-33.476.107-33.476.107s-17.813.267-17.813.267c-2.873.161-5.06 2.621-4.9 5.51.543 22.837 9.143 47.323 26.489 63.068 8.084 8.083 18.708 12.297 28.383 18.08-4.073 3.898-.276 8.992 2.402 12.41 6.828 9.397.317 30.128 5.755 37.177-3.524 5.581-2.689 12.31.123 17.813 5.783 15.919 27.153 23.105 41.826 16.85 14.123-4.456 27.164-21.721 18.406-36.588-1.115-2.921-1.28-1.443-1.636-1.391-.382.056-.732-.481-.974 0l-.545-.963c2.282-.4-.099-.673-.316-.802-.103-.414.193-.695-.583-.695l1.589-.428-4.263-1.123c-1.235-.088-4.861.016-5.788-.535-.896-.533-3.828.076-5.419-.214-8.714-1.219-23.647-2.431-32.502-2.514.182-8.801 1.476-18.83-1.434-27.335 13.265.19 34.009-.238 47.394-.267-1.388 7.669-1.51 17.649-.305 26.372 1.409 2.462.627 3.595 1.503 4.6.997 1.144 1.193.952 1.738 1.926 4.525-2.379 4.847-13.632 6.66-17.706 1.104-4.472 1.824-8.659 3.872-12.731 2.086-4.088 6.914-8.539 3.589-13.213 32.817-12.017 51.915-40.6 55.017-75.05 67.589 21.111 131.496-37.172 120.56-106.45z" fill-rule="evenodd"/></svg>