<svg xmlns="http://www.w3.org/2000/svg" version="1.1" xmlns:xlink="http://www.w3.org/1999/xlink" width="512" height="512" x="0" y="0" viewBox="0 0 512 512" style="enable-background:new 0 0 512 512" xml:space="preserve" class=""><g><path d="M491 425.21h-13.88V21c0-3.31-2.69-6-6-6H81.71c-3.31 0-6 2.69-6 6v214.74H55.38c-22.26 0-40.38 18.11-40.38 40.38v16.69c0 20.09 14.75 36.79 33.98 39.87L41.4 442.64c-5.42 2.24-9.25 7.58-9.25 13.8v25.63c0 8.23 6.7 14.93 14.93 14.93h93.86c3.31 0 6-2.69 6-6v-14.07H491c3.31 0 6-2.69 6-6v-39.72c0-3.32-2.69-6-6-6zM87.71 27h377.41v398.21h-26.45V59.45c0-3.31-2.69-6-6-6H120.16c-3.31 0-6 2.69-6 6v176.29H87.71zM63.26 333.18l7.02 27.62-7.42 38h-6.41l4.52-65.62zm-7.63 77.62H67.8c2.87 0 5.34-2.03 5.89-4.85l8.63-44.17c.17-.87.14-1.77-.07-2.63l-6.6-25.97h17.64l7.35 28.47-17.35 62.94c-.38 1.37-.26 2.83.34 4.11l5.93 12.81H53.51zm63.01-55.1h-7.14l-5.82-22.52h19zm-7.22 12h2.74v57.51H95.57zm14.74-.77a5.987 5.987 0 0 0 2.88-3.68l8.06-30.07h21.38c8.96 0 16.72-5.25 20.37-12.83h13.11c5.77 0 10.77-3.35 13.18-8.2h12.58c7.27 0 13.31-5.27 14.55-12.18h11.25c1.04 0 2.07-.27 2.98-.79l16.62-9.51a6.003 6.003 0 0 0 0-10.42l-16.62-9.51c-.91-.52-1.93-.79-2.98-.79h-11.25c-1.24-6.91-7.29-12.18-14.55-12.18h-12.58a14.804 14.804 0 0 0-4.62-5.43h69.9v173.88H126.16zm300.51-127.6H282.42V65.45h144.25zm-156.25 0h-99.73a22.444 22.444 0 0 0-12.2-3.59h-32.32V65.45h144.26v173.88zm-89.34 21.24h10.89c1.47 0 2.72 1.25 2.72 2.72v42.34c0 1.47-1.25 2.72-2.72 2.72h-10.89zm25.6 8.19h11.04c1.52 0 2.8 1.28 2.8 2.8v25.79c0 1.52-1.28 2.8-2.8 2.8h-11.04zm25.84 12.19h9.41l6.14 3.51-6.14 3.51h-9.41zm49.9-29.62h144.25v173.88H282.42zM27 292.8v-16.69c0-15.65 12.73-28.38 28.38-28.38h103.1c5.84 0 10.6 4.75 10.6 10.6v52.25c0 5.84-4.75 10.6-10.6 10.6H55.38C39.73 321.18 27 308.45 27 292.8zm17.15 189.27v-7.47h63.01c1.32 0 2.43 1.11 2.43 2.43V485H47.08c-1.58 0-2.93-1.34-2.93-2.93zm90.79 2.93h-13.35v-7.97c0-7.96-6.47-14.43-14.43-14.43H44.15v-6.16c0-1.59 1.34-2.93 2.93-2.93h72.11c8.68 0 15.74 7.06 15.74 15.74V485zM485 464.93H146.6c-2.08-13.25-13.58-23.42-27.4-23.42h-16.42l-1.99-4.3H485zM96.42 294.17v-19.43c0-7.42-6.04-13.45-13.45-13.45H53.75c-7.42 0-13.45 6.03-13.45 13.45v19.43c0 7.42 6.03 13.45 13.45 13.45h29.22c7.42 0 13.45-6.03 13.45-13.45zm-44.12 0v-19.43c0-.79.67-1.45 1.45-1.45h29.22c.79 0 1.45.67 1.45 1.45v19.43c0 .79-.67 1.45-1.45 1.45H53.75c-.78 0-1.45-.66-1.45-1.45zm62.89-26.78c0-3.31 2.69-6 6-6h28.59c3.31 0 6 2.69 6 6s-2.69 6-6 6h-28.59c-3.31 0-6-2.69-6-6zm0 16.83c0-3.31 2.69-6 6-6h28.59c3.31 0 6 2.69 6 6s-2.69 6-6 6h-28.59c-3.31 0-6-2.68-6-6zm0 16.84c0-3.31 2.69-6 6-6h28.59c3.31 0 6 2.69 6 6s-2.69 6-6 6h-28.59c-3.31 0-6-2.69-6-6z" fill="#ffffff" opacity="1" data-original="#000000"></path></g></svg>